<?xml version="1.0" encoding="utf-8"?>
<!-- Generator: Adobe Illustrator 22.1.0, SVG Export Plug-In . SVG Version: 6.00 Build 0)  -->
<svg version="1.1" id="レイヤー_1" xmlns="http://www.w3.org/2000/svg" xmlns:xlink="http://www.w3.org/1999/xlink" x="0px"
	 y="0px" viewBox="0 0 248.1 155.1" style="enable-background:new 0 0 248.1 155.1;" xml:space="preserve">
<style type="text/css">
	.st0{fill:none;}
	.st1{fill:#E60012;}
</style>
<g>
	<polygon class="st0" points="124.1,93.3 78.7,62.6 34.5,139.6 124.1,139.6 213.6,139.6 169.5,62.6 	"/>
	<polygon class="st0" points="15.5,19.9 15.5,113.2 68.3,55.6 	"/>
	<polygon class="st0" points="211,15.5 124.1,15.5 37.1,15.5 124.1,77.3 	"/>
	<polygon class="st0" points="232.6,113.2 232.6,19.9 179.8,55.6 	"/>
	<path class="st1" d="M124.1,0L0,0l0,155.1h124.1l124.1,0V0L124.1,0z M124.1,15.5l87,0l-87,61.8l-87-61.8L124.1,15.5z M15.5,19.9
		l52.8,35.7l-52.8,57.6L15.5,19.9z M124.1,139.6H34.5l44.2-77l45.4,30.7l45.4-30.7l44.2,77H124.1z M232.6,113.2l-52.8-57.6
		l52.8-35.7V113.2z"/>
</g>
<g>
</g>
<g>
</g>
<g>
</g>
<g>
</g>
<g>
</g>
<g>
</g>
<g>
</g>
<g>
</g>
<g>
</g>
<g>
</g>
<g>
</g>
<g>
</g>
<g>
</g>
<g>
</g>
<g>
</g>
</svg>
