<?xml version="1.0" encoding="utf-8"?>
<!-- Generator: Adobe Illustrator 22.1.0, SVG Export Plug-In . SVG Version: 6.00 Build 0)  -->
<svg version="1.1" id="レイヤー_1" xmlns="http://www.w3.org/2000/svg" xmlns:xlink="http://www.w3.org/1999/xlink" x="0px"
	 y="0px" viewBox="0 0 250 182.5" style="enable-background:new 0 0 250 182.5;" xml:space="preserve">
<style type="text/css">
	.st0{fill:#E60012;}
</style>
<g>
	<path class="st0" d="M161,106.6c-0.3,1.1-0.6,2.1-1,3.2l-0.2,0.5c-0.9,2.7-2.3,5.1-3.7,7c1.5,0.9,3.3,2,5.5,3.1l0.6,0.3
		c16.6,8.4,24.2,12.5,27.8,15.8c3.7,3.4,7.3,8.9,10.1,15.5c0,0.1,0.1,0.2,0.1,0.3c16.8-0.9,32.2-3.2,45.3-6.6c3-0.8,4.9-3.7,4.3-6.7
		c-1.9-10.9-7-19.7-10.5-22.9c-2.8-2.5-15-8.7-25.6-14.1c-7.7-3.9-11.9-7.4-13.2-8.5V83.1c0.6-0.2,1.1-0.6,1.6-1.2
		c1.6-1.7,2.9-3.7,3.5-5.6c1.4-3.9,2.5-8.5,2.7-9.7c0-0.1,0-0.2,0-0.3c0.5,0.2,1.1,0.3,1.5,0.3c5.6,0,7.8-11.3,8.1-14.3
		c0.3-3-2.3-5-3.3-5.8c0.2-0.5,0.5-1.2,0.7-2c0.6-1.7,1.4-4.2,2-8.6c0.6-4.8-0.8-10.6-3.9-14.2c-3.8-4.5-9.8-8.9-12.3-8.9
		c-4-7.2-9.1-11.9-18.6-12.5c-0.6,0-1.1,0-1.8,0H181c-7.9,0-21.7,7.5-27,17.1c-1.7,3.1-3,5.8-3.9,8.3c-0.3,1-0.6,2-0.8,3.1
		c0.9,1.1,1.9,2.2,2.7,3.5c3.9,2,7.5,4.9,10.2,7.5c0.8,0.8,1.9,1.9,2.9,3l0.6,0.7c2,2.5,3.7,5.3,4.8,8.5c1.2,3.1,1.9,6.7,2.1,10.3
		c0.1,1.8,0,3.6-0.3,5.3c-0.3,1.9-0.6,3.6-0.9,5.1c-0.1,0.4-0.2,0.8-0.3,1.2c1.8,3.6,2.1,7.1,1.8,9.8
		C171.9,92.2,168.3,102,161,106.6z"/>
	<path class="st0" d="M49.8,152c2.9-6.8,6.5-12.3,10.3-15.6c3.5-3.2,11.1-7.2,27.7-15.7l0.5-0.3c2-1,3.7-2,5.1-2.9
		c0.1,0,0.2-0.1,0.3-0.1c0,0,0,0,0,0c0,0,0,0,0.1,0c-1.6-2.2-2.9-4.6-3.7-7c0,0-1.2-3.6-1.2-3.7c-6.2-3.9-10.4-12.3-11.6-24
		c-0.3-2.7,0-6.1,1.7-9.4c-0.1-0.6-0.4-2.9-0.4-2.9c-0.6-4.3-0.6-8-0.1-11.7c0.1-0.5,0.2-1.1,0.2-1.6c0.1-0.5,0.2-0.9,0.3-1.4
		c0.1-0.5,0.2-1.1,0.4-1.6c0.6-2.6,1.6-5.2,3-8.1c0.7-1.6,1.6-3.1,2.5-4.9c0,0,0-0.1,0.1-0.1v-0.5l2.5-3.4
		c3.3-4.4,7.8-8.5,12.7-11.8c-0.6-1.2-1.2-2.3-2-3.3c0-0.1-0.1-0.2-0.2-0.3C94,17,88,12.6,85.5,12.6C81.5,5.4,76.4,0.7,66.9,0
		c-0.6,0-1.1,0-1.7,0H65c-7.9,0-21.7,7.5-27,17.1c-5.3,9.7-6.6,15.1-3.9,27.2c0.3,0.8,0.5,1.5,0.8,2c-0.9,0.8-3.3,2.1-3,5.1
		c0.3,3,2.2,15.1,7.8,15.1c0.5,0,1-0.1,1.6-0.3c0,0,0,0,0,0c0.1,1,0.6,3.7,1.6,6.4c0.3,1,0.8,2.2,1.2,3.6c0.6,1.9,1.9,3.9,3.6,5.7
		c0.5,0.5,1.1,0.9,1.7,1.1v10.3c-1.2,1.1-5.6,4.5-13.2,8.5c-10.5,5.3-22.8,11.6-25.5,14.1c-3.5,3.2-8.6,12-10.5,22.9
		c-0.6,3.1,1.3,6,4.3,6.7c13.1,3.3,28.6,5.6,45.3,6.6C49.8,152.1,49.8,152,49.8,152z"/>
	<path class="st0" d="M107.3,123.2c-1.2,1.1-5.6,4.6-13.2,8.5c-10.5,5.4-22.8,11.6-25.5,14.1c-2.1,1.9-4.8,5.9-7,11.1
		c-0.5,1.1-1,2.3-1.4,3.6c-0.4,1.1-0.8,2.3-1.1,3.6c-0.4,1.5-0.8,3.1-1,4.7c-0.5,3.1,1.3,6,4.3,6.8c17.5,4.5,39.2,7.1,62.7,7.1
		c23.5,0,45.1-2.6,62.6-7.1c3-0.8,4.9-3.7,4.3-6.8c-0.3-1.6-0.6-3.1-1-4.7c-0.3-1.2-0.7-2.4-1.1-3.6c-0.4-1.3-0.9-2.5-1.4-3.6
		c-2.2-5.2-4.9-9.1-7-11.1c-2.7-2.5-15-8.8-25.5-14.1c-7.7-3.9-12-7.3-13.2-8.5v-6.6v-3.6c0.6-0.2,1.1-0.6,1.6-1.2
		c0.1-0.1,0.2-0.2,0.3-0.3c1.5-1.6,2.6-3.5,3.2-5.2c0.1-0.2,0.1-0.4,0.2-0.6c1.3-3.7,2.3-7.9,2.5-9.1c0-0.1,0-0.2,0-0.3
		c0.5,0.2,1.1,0.2,1.5,0.2c5.5,0,7.8-11.3,8.1-14.3c0.3-3-2.3-5.1-3.3-5.8c0.2-0.5,0.5-1.2,0.7-2c0,0,0-0.1,0.1-0.2
		c0.3-1,0.8-2.4,1.2-4.3c0.3-1.1,0.5-2.5,0.7-4.1c0.1-1,0.2-2,0.1-3.1c-0.1-2.1-0.5-4.4-1.3-6.4c-0.6-1.8-1.6-3.4-2.6-4.7l0,0
		c-0.8-0.9-1.6-1.8-2.5-2.7c-3.6-3.5-7.8-6.2-9.8-6.2c-4-7.2-9.1-11.9-18.6-12.5c-0.6,0-1.1,0-1.8,0H123c-7.2,0-19.2,6.2-25.4,14.5
		c0,0,0,0,0,0C97,45.3,96.4,46.1,96,47c-0.8,1.5-1.6,2.9-2.2,4.2c-1,2.1-1.8,4.1-2.2,6.1c-0.3,0.9-0.5,1.9-0.6,2.9
		c-0.4,2.8-0.3,5.7,0.2,9.2v0c0.2,1.5,0.5,3,0.9,4.7c0,0,0,0,0,0.1c0.3,0.8,0.5,1.5,0.8,2c-1,0.8-3.3,2.1-3,5.1
		c0.3,3,2.2,15.1,7.8,15.1c0.5,0,1-0.1,1.6-0.2c0,0,0,0,0,0c0.1,1,0.6,3.7,1.6,6.4c0.3,0.8,0.6,1.8,1,2.9c0.1,0.2,0.1,0.4,0.2,0.6
		c0.6,1.7,1.7,3.6,3.1,5.2c0.1,0.2,0.3,0.3,0.5,0.5c0.5,0.5,1.1,1,1.6,1.2v3.6V123.2z"/>
</g>
<g>
</g>
<g>
</g>
<g>
</g>
<g>
</g>
<g>
</g>
<g>
</g>
<g>
</g>
<g>
</g>
<g>
</g>
<g>
</g>
<g>
</g>
<g>
</g>
<g>
</g>
<g>
</g>
<g>
</g>
</svg>
