<?xml version="1.0" encoding="utf-8"?>
<!-- Generator: Adobe Illustrator 22.1.0, SVG Export Plug-In . SVG Version: 6.00 Build 0)  -->
<svg version="1.1" id="レイヤー_1" xmlns="http://www.w3.org/2000/svg" xmlns:xlink="http://www.w3.org/1999/xlink" x="0px"
	 y="0px" viewBox="0 0 250 330.3" style="enable-background:new 0 0 250 330.3;" xml:space="preserve">
<style type="text/css">
	.st0{fill:#E60012;}
</style>
<path class="st0" d="M215.3,229.9c-20.6-3.5-48.9-23.5-48.9-32.2v-22c0-8.2,11.1-23.5,15.8-37.6c0.4-1.3,3.3,0.2,6.1-3.2
	c5.2-6.4,6-16.1,7.2-20.6c1.9-7-6.6-7.3-6.6-7.3s6.3-36.6,0.7-59.7C182,15.9,141.2,0,125.2,0c-16,0-56.7,15.9-64.3,47.4
	c-5.6,23.1,0.8,59.7,0.8,59.7s-8.2,0.3-6.3,7.3c1.2,4.4,2.6,14.2,7.8,20.6c2.7,3.4,4.4,1.8,4.8,3.2c4.7,14.1,15.8,29.4,15.8,37.6v22
	c0,8.7-28.3,28.7-48.9,32.2c-26.5,4.5-39.6,22.8-33.4,68.5c3.1,22.8,63.3,32.6,123,31.8c59.7,0.8,120.8-9,123.9-31.8
	C254.7,252.7,241.8,234.4,215.3,229.9z"/>
<g>
</g>
<g>
</g>
<g>
</g>
<g>
</g>
<g>
</g>
<g>
</g>
<g>
</g>
<g>
</g>
<g>
</g>
<g>
</g>
<g>
</g>
<g>
</g>
<g>
</g>
<g>
</g>
<g>
</g>
</svg>
